<svg xmlns="http://www.w3.org/2000/svg" version="1.1" xmlns:xlink="http://www.w3.org/1999/xlink" xmlns:svgjs="http://svgjs.dev/svgjs" width="1000" height="1000"><g clip-path="url(#SvgjsClipPath1010)"><rect width="1000" height="1000" fill="#ffffff"></rect><g transform="matrix(12.5,0,0,12.5,150,150)"><svg xmlns="http://www.w3.org/2000/svg" version="1.1" xmlns:xlink="http://www.w3.org/1999/xlink" xmlns:svgjs="http://svgjs.dev/svgjs" width="56" height="56"><svg width="56" height="56" viewBox="0 0 56 56" fill="none" xmlns="http://www.w3.org/2000/svg">
<path d="M41 13.3327L39.3682 12.16L28.5853 4.41866C28.2368 4.16845 27.7675 4.16844 27.419 4.41863L2.41685 22.3661C2.15517 22.5539 2 22.8563 2 23.1784V32.8194C2 33.1415 2.15515 33.4439 2.41681 33.6317L27.4189 51.5813C27.7675 51.8315 28.2368 51.8315 28.5854 51.5812L53.5833 33.6317C53.8449 33.4439 54 33.1415 54 32.8194V23.1784C54 22.8563 53.8448 22.5539 53.5832 22.3661L41 13.3327ZM27.419 9.11825C27.7675 8.86804 28.2368 8.86802 28.5854 9.11822L34.9638 13.6969C35.5198 14.096 35.5195 14.9232 34.9633 15.322L31.9378 17.4913C31.7156 17.6504 31.4167 17.6502 31.1947 17.4908L28.5853 15.6178C28.2368 15.3676 27.7675 15.3676 27.419 15.6178L18.7338 21.8529C18.178 22.2519 18.178 23.0787 18.7339 23.4776L21.1661 25.2235L24.4382 27.5755L27.4188 29.7149C27.7674 29.9651 28.2368 29.965 28.5854 29.7146L37.2698 23.4751C37.8251 23.0761 37.8252 22.25 37.2699 21.8509L35.2116 20.3717C35.0294 20.2407 35.0296 19.9695 35.2121 19.8389L38.7873 17.2754C39.1358 17.0255 39.6049 17.0257 39.9532 17.2758L46.3287 21.8531C46.8844 22.252 46.8844 23.0786 46.3288 23.4777L43.3017 25.6513L28.5875 36.2167C28.239 36.467 27.7696 36.467 27.4211 36.2168L19.9104 30.8253L16.6382 28.4777L12.7026 25.6535L9.67725 23.48C9.12177 23.0809 9.12192 22.2544 9.67753 21.8555L27.419 9.11825Z" fill="#16171B"></path>
</svg></svg></g></g><defs><clipPath id="SvgjsClipPath1010"><rect width="1000" height="1000" x="0" y="0" rx="350" ry="350"></rect></clipPath></defs></svg>